<?xml version="1.0" standalone="no"?>
<!DOCTYPE svg PUBLIC "-//W3C//DTD SVG 20010904//EN"
 "http://www.w3.org/TR/2001/REC-SVG-20010904/DTD/svg10.dtd">
<svg version="1.0" xmlns="http://www.w3.org/2000/svg"
 width="320.000000pt" height="320.000000pt" viewBox="0 0 320.000000 320.000000"
 preserveAspectRatio="xMidYMid meet">

<g transform="translate(0.000000,320.000000) scale(0.100000,-0.100000)"
fill="#000000" stroke="none">
<path d="M0 1600 l0 -1600 1600 0 1600 0 0 1600 0 1600 -1600 0 -1600 0 0
-1600z m1760 713 c83 -17 194 -64 263 -112 255 -175 383 -550 268 -780 -10
-20 -24 -61 -31 -91 -14 -61 -49 -137 -89 -190 -93 -127 -278 -237 -445 -265
-69 -11 -223 -6 -298 11 -69 15 -180 63 -192 82 -3 5 20 -4 51 -20 31 -15 63
-28 72 -28 10 0 21 -3 27 -8 5 -4 -1 2 -15 13 -50 41 -74 65 -69 70 2 3 60
-14 129 -37 107 -36 136 -41 214 -42 63 0 108 5 150 19 72 23 181 95 177 115
-2 8 -1 12 3 8 6 -6 135 113 135 126 0 3 -34 -17 -75 -44 -135 -87 -289 -136
-465 -146 -243 -14 -443 53 -566 189 -42 46 -101 154 -90 164 2 3 14 -15 24
-39 24 -51 60 -93 90 -103 12 -3 22 -11 22 -17 0 -6 3 -8 7 -5 3 4 15 -1 26
-10 15 -13 18 -14 12 -3 -8 13 -7 13 8 1 9 -7 17 -10 17 -5 0 5 4 4 8 -2 12
-18 72 -35 72 -21 0 9 2 9 8 1 20 -32 303 -34 382 -4 3 1 9 2 13 1 4 -1 17 4
29 10 16 8 19 8 13 -1 -4 -7 4 -4 19 5 14 10 26 15 26 11 0 -3 17 3 37 14 21
11 46 20 55 20 10 0 18 5 18 11 0 5 4 8 9 4 5 -3 13 0 16 5 4 6 17 16 28 21
49 22 97 56 90 64 -5 4 -3 5 3 2 11 -6 77 44 118 88 100 109 159 221 171 327
13 113 2 198 -33 240 -51 62 -138 130 -245 192 l-48 28 26 -47 c49 -93 23
-198 -73 -290 -50 -48 -51 -50 -33 -70 10 -11 21 -28 24 -37 5 -13 -2 -11 -30
8 -20 13 -41 24 -47 24 -6 0 -45 -13 -86 -29 -228 -88 -509 -57 -639 70 -23
22 -41 45 -41 50 0 5 -4 9 -9 9 -6 0 -18 -24 -27 -54 -9 -30 -30 -68 -46 -85
-16 -17 -35 -46 -43 -63 l-14 -33 -1 38 c0 50 39 131 89 184 29 32 38 48 34
64 -4 15 -3 20 6 15 6 -4 9 -11 6 -16 -3 -4 8 -18 24 -31 16 -13 27 -28 24
-34 -4 -5 -3 -7 2 -3 4 4 23 1 42 -7 19 -8 37 -14 41 -14 18 3 33 -2 28 -9 -7
-12 68 -9 76 3 5 6 8 6 8 -1 0 -7 22 -10 58 -8 68 2 173 24 167 34 -2 4 6 6
20 5 14 -2 26 3 30 13 5 14 7 14 15 2 7 -11 10 -12 10 -2 0 7 5 10 10 7 6 -3
10 -1 10 4 0 6 6 11 13 11 22 0 119 98 111 112 -4 6 -3 8 3 5 14 -9 32 32 29
68 -3 48 -15 73 -39 81 -48 14 -117 50 -122 62 -3 10 0 12 10 8 9 -3 15 0 15
8 0 8 8 17 18 21 33 14 -28 22 -148 20 -128 -3 -158 -11 -189 -51 -59 -75 10
-157 154 -179 l50 -8 -40 -9 c-22 -5 -77 -8 -121 -6 -72 4 -88 8 -130 36 -27
17 -44 32 -39 32 6 0 4 4 -3 9 -7 4 -15 20 -16 35 -3 20 4 33 28 51 101 76
238 131 356 143 91 9 151 6 250 -15z m-640 -169 c0 -3 -14 -17 -31 -32 -18
-14 -45 -44 -60 -66 -16 -21 -29 -35 -29 -31 0 9 41 64 79 108 22 25 41 35 41
21z m-244 -559 c1 -8 12 -31 24 -51 17 -27 25 -32 32 -22 5 8 7 4 3 -13 -6
-23 1 -32 46 -68 28 -22 47 -41 42 -41 -21 0 -99 61 -117 91 -18 30 -20 31
-27 13 -5 -13 -8 -6 -8 26 -1 25 -4 56 -8 70 -3 14 -2 21 2 17 5 -4 10 -14 11
-22z m688 -95 c68 -11 148 -47 189 -86 27 -25 28 -27 11 -45 -18 -20 -101 -49
-142 -49 -14 0 -39 9 -57 20 -17 11 -59 26 -92 34 -34 7 -70 22 -81 32 -26 25
-56 73 -50 80 8 7 88 22 128 23 19 0 62 -3 94 -9z m-672 -45 c3 -13 1 -22 -3
-19 -9 5 -13 44 -5 44 2 0 6 -11 8 -25z"/>
</g>
</svg>
